<?xml version="1.0" encoding="UTF-8"?>
<svg width="32px" height="32px" viewBox="0 0 32 32" version="1.1" xmlns="http://www.w3.org/2000/svg" xmlns:xlink="http://www.w3.org/1999/xlink">
    <title>icon-x</title>
    <g id="icon-x" stroke="none" stroke-width="1" fill="none" fill-rule="evenodd">
        <g id="iconmonstr-linkedin-3" transform="translate(4, 4)" fill="#FFFFFF" fill-rule="nonzero">
            <path d="M19,0 C21.762,0 24,2.239 24,5 L24,19 C24,21.761 21.762,24 19,24 L5,24 C2.239,24 0,21.761 0,19 L0,5 C0,2.239 2.239,0 5,0 Z M9.04203468,5 L4,5 L9.97803468,12.7342166 L4.38242775,19.2222222 L6.96776879,19.2222222 L11.1999538,14.3151026 L14.9579653,19.1770644 L20,19.1770644 L13.8482312,11.2181005 L13.8591445,11.2318245 L19.1558844,5.09031564 L16.5705434,5.09031564 L12.6370405,9.6511196 L9.04203468,5 Z M8.35278613,6.35450814 L17.2168786,17.8225563 L15.6472139,17.8225563 L6.78312139,6.35450814 L8.35278613,6.35450814 Z" id="Combined-Shape"></path>
        </g>
    </g>
</svg>