<?xml version="1.0" encoding="UTF-8"?>
<svg width="340px" height="106px" viewBox="0 0 340 106" version="1.1" xmlns="http://www.w3.org/2000/svg" xmlns:xlink="http://www.w3.org/1999/xlink">
    <title>kela-logo-white</title>
    <g id="kela-logo-white" stroke="none" stroke-width="1" fill="none" fill-rule="evenodd">
        <g id="kela-logo" transform="translate(9.5736, 10.5736)" fill="#FFFFFF">
            <g id="kela-wordmark" transform="translate(105.4264, 5.4264)">
                <path d="M0,0 L12,0 L12,74 L0,74 L0,0 Z M90,64 C96.0000995,64 101.845803,61.8419282 104.930098,57.0005808 L118.018386,57.0009338 C113.814398,68.1270513 102.798951,75 90,75 C72.6424793,75 60,61.5685425 60,45 C60,28.4314575 72.6424793,15 90,15 C107.357521,15 120,28.4314575 120,45 C120,46.7036936 119.866326,48.3742175 119.607597,50.0003795 L72.5684128,50.0009042 C74.4606979,58.068124 80.9438751,64 90,64 Z M64.971,0 L27.97,36.9998067 L64.97,74 L49,74 L12,37 L49,0 L64.971,0 Z M90,26 C81.3218021,26 75.0062861,31.4471127 72.8291562,39.000553 L107.170844,39.000553 C104.993714,31.4471127 98.6781979,26 90,26 Z M127,0 L139,0 L139,74 L127,74 L127,0 Z M174.5,15 C182.250133,15 189.010791,17.967009 194.000076,22.8322343 L194,16 L206,16 L206,74 L194,74 L194.000076,67.1677657 C189.010791,72.032991 182.250133,75 174.5,75 C158.010355,75 146,61.5685425 146,45 C146,28.4314575 158.010355,15 174.5,15 Z M176,26 C165.155136,26 158,34.5065898 158,45 C158,55.4934102 165.155136,64 176,64 C186.844864,64 194,55.4934102 194,45 C194,34.5065898 186.844864,26 176,26 Z" id="Shape"></path>
            </g>
            <g id="kela-symbol">
                <path d="M12.4264069,52.4264069 L42.3913181,52.4263466 L42.7063117,52.4225651 C48.0997361,52.2743386 52.4264069,47.8556468 52.4264069,42.4264069 L52.4254069,42.3564069 L52.4264069,12.4264069 L72.4264069,12.4264069 L72.4264069,72.4264069 L12.4264069,72.4264069 L12.4264069,52.4264069 Z M48.4264069,34.4254943 C46.754887,33.1702253 44.677511,32.4264069 42.4264069,32.4264069 C36.9035594,32.4264069 32.4264069,36.9035594 32.4264069,42.4264069 C32.4264069,44.677511 33.1702253,46.754887 34.4254943,48.4264069 L12.4264069,48.4264069 L12.4264069,12.4264069 L48.4264069,12.4264069 L48.4264069,34.4254943 Z" id="Shape" transform="translate(42.4264, 42.4264) rotate(45) translate(-42.4264, -42.4264)"></path>
            </g>
        </g>
    </g>
</svg>